<svg id="visual" viewBox="0 0 1920 1080" width="1920" height="1080" xmlns="http://www.w3.org/2000/svg" xmlns:xlink="http://www.w3.org/1999/xlink" version="1.1"><path d="M0 33L64 58.3C128 83.7 256 134.3 384 136.2C512 138 640 91 768 76.5C896 62 1024 80 1152 107C1280 134 1408 170 1536 164.7C1664 159.3 1792 112.7 1856 89.3L1920 66L1920 0L1856 0C1792 0 1664 0 1536 0C1408 0 1280 0 1152 0C1024 0 896 0 768 0C640 0 512 0 384 0C256 0 128 0 64 0L0 0Z" fill="#6198ff"></path><path d="M0 120L64 157.8C128 195.7 256 271.3 384 267.7C512 264 640 181 768 146.7C896 112.3 1024 126.7 1152 150.2C1280 173.7 1408 206.3 1536 202.8C1664 199.3 1792 159.7 1856 139.8L1920 120L1920 64L1856 87.3C1792 110.7 1664 157.3 1536 162.7C1408 168 1280 132 1152 105C1024 78 896 60 768 74.5C640 89 512 136 384 134.2C256 132.3 128 81.7 64 56.3L0 31Z" fill="#4385ff"></path><path d="M0 433L64 442C128 451 256 469 384 433C512 397 640 307 768 303.3C896 299.7 1024 382.3 1152 407.5C1280 432.7 1408 400.3 1536 353.7C1664 307 1792 246 1856 215.5L1920 185L1920 118L1856 137.8C1792 157.7 1664 197.3 1536 200.8C1408 204.3 1280 171.7 1152 148.2C1024 124.7 896 110.3 768 144.7C640 179 512 262 384 265.7C256 269.3 128 193.7 64 155.8L0 118Z" fill="#2071ff"></path><path d="M0 627L64 654C128 681 256 735 384 727.8C512 720.7 640 652.3 768 657.8C896 663.3 1024 742.7 1152 735.5C1280 728.3 1408 634.7 1536 643.7C1664 652.7 1792 764.3 1856 820.2L1920 876L1920 183L1856 213.5C1792 244 1664 305 1536 351.7C1408 398.3 1280 430.7 1152 405.5C1024 380.3 896 297.7 768 301.3C640 305 512 395 384 431C256 467 128 449 64 440L0 431Z" fill="#0061f1"></path><path d="M0 746L64 780.2C128 814.3 256 882.7 384 871.8C512 861 640 771 768 763.8C896 756.7 1024 832.3 1152 830.7C1280 829 1408 750 1536 755.5C1664 761 1792 851 1856 896L1920 941L1920 874L1856 818.2C1792 762.3 1664 650.7 1536 641.7C1408 632.7 1280 726.3 1152 733.5C1024 740.7 896 661.3 768 655.8C640 650.3 512 718.7 384 725.8C256 733 128 679 64 652L0 625Z" fill="#0056d6"></path><path d="M0 1081L64 1081C128 1081 256 1081 384 1081C512 1081 640 1081 768 1081C896 1081 1024 1081 1152 1081C1280 1081 1408 1081 1536 1081C1664 1081 1792 1081 1856 1081L1920 1081L1920 939L1856 894C1792 849 1664 759 1536 753.5C1408 748 1280 827 1152 828.7C1024 830.3 896 754.7 768 761.8C640 769 512 859 384 869.8C256 880.7 128 812.3 64 778.2L0 744Z" fill="#004cbb"></path></svg>